HIERARCHY
ROOT joint_Root
{
	OFFSET 0.0 0.0 0.0
	CHANNELS 6 Xposition Yposition Zposition Zrotation Xrotation Yrotation 
	JOINT Hips
	{
		OFFSET 4.5925 91.4895 -427.239
		CHANNELS 6 Xposition Yposition Zposition Zrotation Xrotation Yrotation 
		JOINT Spine
		{
			OFFSET 15.7357 0.0 0.0
			CHANNELS 6 Xposition Yposition Zposition Zrotation Xrotation Yrotation 
			JOINT Chest
			{
				OFFSET 8.98455 -0.406207 0.0
				CHANNELS 6 Xposition Yposition Zposition Zrotation Xrotation Yrotation 
				JOINT Neck
				{
					OFFSET 16.3773 0.0 0.0
					CHANNELS 6 Xposition Yposition Zposition Zrotation Xrotation Yrotation 
					JOINT Head
					{
						OFFSET 6.45672 0.0 0.0
						CHANNELS 6 Xposition Yposition Zposition Zrotation Xrotation Yrotation 
						End Site
						{
							OFFSET 0.0 0.0 0.0
						}
					}
				}
				JOINT Shoulder_L
				{
					OFFSET 12.9942 -0.242716 4.98039
					CHANNELS 6 Xposition Yposition Zposition Zrotation Xrotation Yrotation 
					JOINT UpperArm_L
					{
						OFFSET 5.34809 0.0 0.0
						CHANNELS 6 Xposition Yposition Zposition Zrotation Xrotation Yrotation 
						JOINT LowerArm_L
						{
							OFFSET 24.3286 1.87007e-05 0.0
							CHANNELS 6 Xposition Yposition Zposition Zrotation Xrotation Yrotation 
							JOINT Hand_L
							{
								OFFSET 22.2916 0.0 0.0
								CHANNELS 6 Xposition Yposition Zposition Zrotation Xrotation Yrotation 
								End Site
								{
									OFFSET 0.0 0.0 0.0
								}
							}
						}
					}
				}
				JOINT Shoulder_R
				{
					OFFSET 12.9945 -0.242716 -4.98039
					CHANNELS 6 Xposition Yposition Zposition Zrotation Xrotation Yrotation 
					JOINT UpperArm_R
					{
						OFFSET -5.34813 0.0 0.0
						CHANNELS 6 Xposition Yposition Zposition Zrotation Xrotation Yrotation 
						JOINT LowerArm_R
						{
							OFFSET -24.3289 0.000322201 0.0
							CHANNELS 6 Xposition Yposition Zposition Zrotation Xrotation Yrotation 
							JOINT Hand_R
							{
								OFFSET -22.2915 -0.000108084 0.0
								CHANNELS 6 Xposition Yposition Zposition Zrotation Xrotation Yrotation 
								End Site
								{
									OFFSET 0.0 0.0 0.0
								}
							}
						}
					}
				}
			}
		}
		JOINT UpperLeg_L
		{
			OFFSET -2.19248 -6.46944 0.0
			CHANNELS 6 Xposition Yposition Zposition Zrotation Xrotation Yrotation 
			JOINT LowerLeg_L
			{
				OFFSET 39.0811 0.0 -1.23785e-05
				CHANNELS 6 Xposition Yposition Zposition Zrotation Xrotation Yrotation 
				JOINT Foot_L
				{
					OFFSET 40.9854 0.0 -1.26872e-05
					CHANNELS 6 Xposition Yposition Zposition Zrotation Xrotation Yrotation 
					JOINT Toes_L
					{
						OFFSET 11.7543 0.0 0.0
						CHANNELS 6 Xposition Yposition Zposition Zrotation Xrotation Yrotation 
						End Site
						{
							OFFSET 0.0 0.0 0.0
						}
					}
				}
			}
		}
		JOINT UpperLeg_R
		{
			OFFSET -2.19251 6.46944 0.0
			CHANNELS 6 Xposition Yposition Zposition Zrotation Xrotation Yrotation 
			JOINT LowerLeg_R
			{
				OFFSET -39.0811 -0.00228153 -0.0401928
				CHANNELS 6 Xposition Yposition Zposition Zrotation Xrotation Yrotation 
				JOINT Foot_R
				{
					OFFSET -40.9854 0.0 0.0
					CHANNELS 6 Xposition Yposition Zposition Zrotation Xrotation Yrotation 
					JOINT Toes_R
					{
						OFFSET -11.7543 0.0 0.0
						CHANNELS 6 Xposition Yposition Zposition Zrotation Xrotation Yrotation 
						End Site
						{
							OFFSET 0.0 0.0 0.0
						}
					}
				}
			}
		}
	}
}
MOTION
Frames:	5
Frame Time:	0.0333333
0.000000 0.000000 0.000000 0.000000 0.000000 -0.000000 -2.852340 89.664900 -0.166978 88.905200 -1.315610 12.359400 15.735700 0.000005 -0.000001 86.634200 77.155700 -86.081800 8.984550 -0.406207 -0.000000 17.889600 -1.432240 1.332400 16.377300 -0.000001 -0.000001 1.514200 -4.037750 3.216660 6.456720 -0.000001 -0.000000 -9.536470 -2.575060 4.588840 12.994200 -0.242716 4.980390 -91.152900 5.999090 -79.100500 5.348090 -0.000007 -0.000001 -53.515300 41.852700 -31.507700 24.328600 0.000019 0.000005 7.280800 19.586300 -20.862900 22.291600 -0.000001 0.000005 7.352150 5.276270 0.727932 12.994500 -0.242716 -4.980390 89.010900 11.172700 -84.908200 -5.348130 -0.000001 -0.000004 -58.589200 30.296400 -23.108000 -24.328900 0.000322 -0.000009 2.740370 6.368260 -23.350200 -22.291500 -0.000108 -0.000004 15.297400 5.376390 -2.185210 -2.192480 -6.469440 -0.000000 -172.305000 -11.601600 -0.961044 39.081100 -0.000007 -0.000012 -0.272922 0.368689 36.511300 40.985400 -0.000006 -0.000013 -1.264490 4.323470 -72.595200 11.754300 -0.000000 0.000003 -0.000220 -0.002003 -16.652900 -2.192510 6.469440 -0.000001 175.147000 20.739400 -178.978000 -39.081100 -0.002282 -0.040193 -0.176742 0.251456 35.601100 -40.985400 0.000008 0.000006 5.977670 10.085100 -74.256600 -11.754300 -0.000006 -0.000006 -0.002470 -0.034450 -17.974000
0.000000 0.000000 0.000000 0.000000 0.000000 -0.000000 -2.844450 89.666200 -0.199411 88.906300 -1.295940 12.408400 15.735700 0.000005 -0.000001 86.622500 77.141500 -86.081200 8.984550 -0.406207 -0.000000 17.917600 -1.439760 1.311850 16.377300 -0.000001 -0.000001 1.521880 -4.016160 3.201250 6.456720 -0.000001 -0.000000 -9.533900 -2.557830 4.549180 12.994200 -0.242716 4.980390 -91.151000 5.990090 -79.102800 5.348090 -0.000007 -0.000001 -53.500300 41.793200 -31.443400 24.328600 0.000019 0.000005 7.248520 19.559200 -20.802700 22.291600 -0.000001 0.000005 7.368540 5.277530 0.693546 12.994500 -0.242716 -4.980390 89.000400 11.171500 -84.854000 -5.348130 -0.000001 -0.000004 -58.469500 29.967700 -23.214800 -24.328900 0.000322 -0.000009 2.834600 6.292500 -24.318800 -22.291500 -0.000108 -0.000004 15.331100 5.379240 -2.274470 -2.192480 -6.469440 -0.000000 -172.312000 -11.570500 -0.937642 39.081100 -0.000007 -0.000012 -0.275399 0.371981 36.515300 40.985400 -0.000006 -0.000013 -1.258630 4.313500 -72.578300 11.754300 -0.000000 0.000003 -0.000226 -0.002052 -16.654700 -2.192510 6.469440 -0.000001 175.119000 20.754900 -178.951000 -39.081100 -0.002282 -0.040193 -0.178868 0.254368 35.607200 -40.985400 0.000008 0.000006 5.962820 10.087200 -74.232900 -11.754300 -0.000006 -0.000006 -0.002462 -0.034361 -17.970400
0.000000 0.000000 0.000000 0.000000 0.000000 -0.000000 -2.834270 89.666200 -0.234562 88.872800 -1.315640 12.457200 15.735700 0.000005 -0.000001 86.640000 77.126500 -86.096900 8.984550 -0.406207 -0.000000 17.947800 -1.433430 1.314710 16.377300 -0.000001 -0.000001 1.534270 -4.000250 3.188470 6.456720 -0.000001 -0.000000 -9.524590 -2.524810 4.536320 12.994200 -0.242716 4.980390 -91.145500 5.948630 -79.079600 5.348090 -0.000007 -0.000001 -53.514800 41.771600 -31.438100 24.328600 0.000019 0.000005 7.232910 19.627100 -20.698000 22.291600 -0.000001 0.000005 7.295740 5.275200 0.757255 12.994500 -0.242716 -4.980390 88.993000 11.159100 -84.810300 -5.348130 -0.000001 -0.000004 -58.309000 29.519600 -23.337100 -24.328900 0.000322 -0.000009 2.922470 6.110630 -25.629900 -22.291500 -0.000108 -0.000004 15.535200 5.383500 -2.408530 -2.192480 -6.469440 -0.000000 -172.272000 -11.576800 -0.931849 39.081100 -0.000007 -0.000012 -0.276148 0.372570 36.546300 40.985400 -0.000006 -0.000013 -1.246480 4.324000 -72.565700 11.754300 -0.000000 0.000003 -0.000235 -0.002118 -16.657100 -2.192510 6.469440 -0.000001 175.133000 20.763600 -178.920000 -39.081100 -0.002282 -0.040193 -0.179052 0.254714 35.597800 -40.985400 0.000008 0.000006 5.922180 10.117100 -74.192800 -11.754300 -0.000006 -0.000006 -0.002516 -0.035003 -17.996500
0.000000 0.000000 0.000000 0.000000 0.000000 -0.000000 -2.821180 89.661900 -0.279177 88.871700 -1.336440 12.493800 15.735700 0.000005 -0.000001 86.682100 77.115700 -86.142200 8.984550 -0.406207 -0.000000 17.970400 -1.416230 1.305930 16.377300 -0.000001 -0.000001 1.550380 -3.974930 3.181160 6.456720 -0.000001 -0.000000 -9.531750 -2.522480 4.531300 12.994200 -0.242716 4.980390 -91.139800 5.924850 -79.090300 5.348090 -0.000007 -0.000001 -53.549200 41.739500 -31.434400 24.328600 0.000019 0.000005 7.207680 19.682100 -20.580500 22.291600 -0.000001 0.000005 7.339120 5.277010 0.707965 12.994500 -0.242716 -4.980390 88.979100 11.108100 -84.715200 -5.348130 -0.000001 -0.000004 -58.289800 28.756400 -23.510400 -24.328900 0.000322 -0.000009 3.075150 6.028880 -27.097700 -22.291500 -0.000108 -0.000004 15.714600 5.389850 -2.610470 -2.192480 -6.469440 -0.000000 -172.278000 -11.599000 -0.941088 39.081100 -0.000007 -0.000012 -0.271780 0.366163 36.584700 40.985400 -0.000006 -0.000013 -1.234260 4.309700 -72.557900 11.754300 -0.000000 0.000003 -0.000235 -0.002122 -16.657200 -2.192510 6.469440 -0.000001 175.116000 20.731900 -178.934000 -39.081100 -0.002282 -0.040193 -0.186163 0.264370 35.626200 -40.985400 0.000008 0.000006 5.840020 10.164100 -74.153700 -11.754300 -0.000006 -0.000006 -0.002561 -0.035535 -18.018200
0.000000 0.000000 0.000000 0.000000 0.000000 -0.000000 -2.801030 89.664700 -0.327209 88.859700 -1.378160 12.525600 15.735700 0.000005 -0.000001 86.693500 77.113500 -86.155100 8.984550 -0.406207 -0.000000 17.975000 -1.411550 1.302290 16.377300 -0.000001 -0.000001 1.613630 -3.924490 3.185290 6.456720 -0.000001 -0.000000 -9.575790 -2.460550 4.523050 12.994200 -0.242716 4.980390 -91.138100 5.895460 -79.053400 5.348090 -0.000007 -0.000001 -53.596800 41.729400 -31.392100 24.328600 0.000019 0.000005 7.220190 19.717200 -20.581300 22.291600 -0.000001 0.000005 7.311400 5.275240 0.756023 12.994500 -0.242716 -4.980390 88.961500 11.041900 -84.593500 -5.348130 -0.000001 -0.000004 -58.237100 27.927000 -23.695200 -24.328900 0.000322 -0.000009 3.352790 6.053140 -29.061400 -22.291500 -0.000108 -0.000004 15.995400 5.390730 -2.638630 -2.192480 -6.469440 -0.000000 -172.263000 -11.640600 -0.937131 39.081100 -0.000007 -0.000012 -0.275861 0.371531 36.594400 40.985400 -0.000006 -0.000013 -1.216920 4.310360 -72.537000 11.754300 -0.000000 0.000003 -0.000231 -0.002092 -16.656100 -2.192510 6.469440 -0.000001 175.115000 20.708100 -178.939000 -39.081100 -0.002282 -0.040193 -0.187468 0.266194 35.626000 -40.985400 0.000008 0.000006 5.809970 10.172700 -74.109100 -11.754300 -0.000006 -0.000006 -0.002443 -0.034135 -17.961200
